<svg width="33" height="33" viewBox="0 0 33 33" fill="none" xmlns="http://www.w3.org/2000/svg">
<g filter="url(#filter0_d_3502_54507)">
<path d="M10.6664 22.3336C7.44455 19.1118 7.44455 13.8882 10.6664 10.6664V10.6664C13.8882 7.44454 19.1118 7.44454 22.3336 10.6664V10.6664C25.5555 13.8882 25.5555 19.1118 22.3336 22.3336V22.3336C19.1118 25.5555 13.8882 25.5555 10.6664 22.3336V22.3336Z" fill="#C70036"/>
<path d="M10.6664 22.3336C7.44455 19.1118 7.44455 13.8882 10.6664 10.6664V10.6664C13.8882 7.44454 19.1118 7.44454 22.3336 10.6664V10.6664C25.5555 13.8882 25.5555 19.1118 22.3336 22.3336V22.3336C19.1118 25.5555 13.8882 25.5555 10.6664 22.3336V22.3336Z" stroke="white" stroke-width="1.5"/>
</g>
<path d="M20.115 13.3291V13.3301L20.117 13.3291C20.1186 13.3292 20.1202 13.33 20.1219 13.3301C20.2087 13.3315 20.2846 13.3612 20.3465 13.4092C20.361 13.4196 20.3755 13.4301 20.3885 13.4424L20.4373 13.501C20.4795 13.5649 20.503 13.6442 20.5037 13.7148L20.4978 13.793C20.4869 13.8502 20.4606 13.9021 20.4256 13.9473C20.4157 13.961 20.4044 13.9735 20.3933 13.9863L20.3943 13.9873C20.3909 13.9916 20.3868 13.9956 20.3846 13.998C20.3819 14.001 20.3806 14.0028 20.3797 14.0039L20.3777 14.0059L19.576 14.9268L18.9432 15.6533C18.8448 15.7664 18.7466 15.8794 18.6482 15.9922C18.5497 16.1052 18.4508 16.2188 18.3523 16.332C18.0154 16.7182 17.6786 17.1058 17.3416 17.4932C17.2513 17.5966 17.1604 17.7 17.0701 17.8037C16.9799 17.9073 16.8898 18.0109 16.7996 18.1143C16.7302 18.1939 16.6233 18.2304 16.5223 18.2305C16.4212 18.2305 16.3143 18.194 16.2449 18.1143L16.242 18.1113C16.2403 18.109 16.239 18.1076 16.2381 18.1064V18.1055L16.2361 18.1035C16.0144 17.861 15.8031 17.6075 15.5896 17.3613C15.4212 17.1677 15.2523 16.9746 15.0838 16.7812L14.5779 16.2002C14.4172 16.0143 14.2555 15.8296 14.0945 15.6445L13.3435 14.7822C13.1126 14.5184 12.8829 14.253 12.6521 13.9883C12.5513 13.8725 12.5099 13.7182 12.574 13.5664C12.6334 13.4259 12.7732 13.3291 12.9295 13.3291H20.115ZM14.0232 14.3828C14.1288 14.5036 14.2344 14.6251 14.3396 14.7461C14.4449 14.8672 14.5496 14.9886 14.6551 15.1094C14.7535 15.2226 14.8525 15.3352 14.951 15.4482C15.0495 15.5612 15.1483 15.6748 15.2469 15.7881C15.5838 16.1743 15.9207 16.562 16.2576 16.9492C16.3455 17.0499 16.4334 17.151 16.5213 17.252C16.6486 17.1069 16.7752 16.9615 16.9002 16.8174C17.0687 16.6237 17.2376 16.4307 17.406 16.2373C17.5746 16.0439 17.7434 15.8499 17.9119 15.6562C17.9923 15.5638 18.0724 15.4706 18.1531 15.3779C18.2338 15.2852 18.3149 15.193 18.3953 15.1006C18.6448 14.8127 18.8958 14.5259 19.1463 14.2383L19.2615 14.1055H13.781C13.8616 14.198 13.9428 14.2905 14.0232 14.3828Z" fill="white" stroke="white" stroke-width="0.12"/>
<path d="M16.5201 17.4531C16.7352 17.4441 16.9105 17.6393 16.9107 17.8408V20.9717C16.9106 21.1925 16.7312 21.3504 16.525 21.3594C16.3097 21.3687 16.1346 21.1734 16.1344 20.9717V17.8408C16.1346 17.6212 16.3137 17.462 16.5201 17.4531Z" fill="white" stroke="white" stroke-width="0.12"/>
<path d="M18.1326 20.583C18.3522 20.5832 18.5114 20.7624 18.5203 20.9688C18.5293 21.1838 18.3342 21.3591 18.1326 21.3594H14.9119C14.7196 21.3592 14.5751 21.2218 14.535 21.0498L14.5242 20.9736C14.5149 20.7584 14.7102 20.5833 14.9119 20.583H18.1326Z" fill="white" stroke="white" stroke-width="0.12"/>
<path d="M19.6346 11.6758C19.8542 11.676 20.0134 11.8551 20.0223 12.0615C20.0313 12.2766 19.8361 12.4519 19.6346 12.4521H19.3582C19.3162 12.5249 19.2756 12.5979 19.2351 12.6689C19.1569 12.8069 19.0783 12.9451 18.9998 13.083C18.9213 13.2208 18.8426 13.3584 18.7644 13.4961C18.6736 13.6553 18.5826 13.8151 18.492 13.9746C18.4014 14.1341 18.3113 14.2939 18.2205 14.4531C18.1455 14.585 18.0698 14.7161 17.9949 14.8477C17.9199 14.9793 17.8453 15.1113 17.7703 15.2432C17.708 15.3535 17.645 15.4622 17.5828 15.5713L17.5838 15.5723C17.4882 15.7404 17.2911 15.7957 17.1238 15.7432L17.0545 15.7139C16.8616 15.6126 16.8123 15.3565 16.9119 15.1826L16.9148 15.1768C16.9895 15.0406 17.0694 14.9058 17.1453 14.7725C17.2236 14.6345 17.3021 14.4963 17.3807 14.3584C17.4591 14.2206 17.5378 14.083 17.616 13.9453C17.7068 13.7862 17.797 13.6263 17.8875 13.4668C17.978 13.3073 18.0691 13.1476 18.16 12.9883C18.2349 12.8564 18.3096 12.7243 18.3846 12.5928C18.4594 12.4613 18.5343 12.3299 18.6092 12.1982L18.7967 11.8691L18.8582 11.7881C18.9304 11.7165 19.0307 11.6758 19.1326 11.6758H19.6346Z" fill="white" stroke="white" stroke-width="0.12"/>
<path d="M18.6678 14.9893C18.7658 14.9893 18.8508 15.0262 18.9168 15.084C18.9245 15.0901 18.933 15.095 18.9402 15.1016L18.99 15.1602C19.033 15.2251 19.0564 15.3065 19.0564 15.3779C19.0564 15.3842 19.0548 15.3903 19.0545 15.3965C19.0528 15.4831 19.0187 15.5613 18.9646 15.624C18.9581 15.6324 18.9521 15.6414 18.9451 15.6494C18.9014 15.6997 18.857 15.7495 18.8133 15.7998L18.6824 15.9512C18.2961 16.3933 17.9105 16.8361 17.5252 17.2783L16.7986 18.1123C16.7292 18.192 16.6224 18.2285 16.5213 18.2285C16.4202 18.2285 16.3133 18.1919 16.2439 18.1123C16.2003 18.0622 16.1567 18.0121 16.1131 17.9619L15.9812 17.8105C15.7887 17.5895 15.5966 17.3678 15.4041 17.1465C15.2115 16.9252 15.0185 16.7044 14.826 16.4834L14.0994 15.6494C13.9986 15.5337 13.9573 15.3793 14.0213 15.2275C14.0806 15.0869 14.2203 14.9893 14.3767 14.9893H18.6678Z" fill="white" stroke="white" stroke-width="0.12"/>
<defs>
<filter id="filter0_d_3502_54507" x="0" y="0" width="33" height="33" filterUnits="userSpaceOnUse" color-interpolation-filters="sRGB">
<feFlood flood-opacity="0" result="BackgroundImageFix"/>
<feColorMatrix in="SourceAlpha" type="matrix" values="0 0 0 0 0 0 0 0 0 0 0 0 0 0 0 0 0 0 127 0" result="hardAlpha"/>
<feMorphology radius="1.5" operator="dilate" in="SourceAlpha" result="effect1_dropShadow_3502_54507"/>
<feOffset/>
<feGaussianBlur stdDeviation="3"/>
<feComposite in2="hardAlpha" operator="out"/>
<feColorMatrix type="matrix" values="0 0 0 0 0 0 0 0 0 0 0 0 0 0 0 0 0 0 0.16 0"/>
<feBlend mode="normal" in2="BackgroundImageFix" result="effect1_dropShadow_3502_54507"/>
<feBlend mode="normal" in="SourceGraphic" in2="effect1_dropShadow_3502_54507" result="shape"/>
</filter>
</defs>
</svg>
