<svg width="44" height="48" viewBox="0 0 44 48" fill="none" xmlns="http://www.w3.org/2000/svg">
<g filter="url(#filter0_d_3556_55117)">
<path d="M13.9718 29.5282C9.67606 25.2324 9.67606 18.2676 13.9718 13.9718C18.2676 9.67606 25.2324 9.67606 29.5282 13.9718C33.8239 18.2676 33.8239 25.2324 29.5282 29.5282L22.412 36.6444C22.0464 37.01 21.4536 37.01 21.088 36.6444L13.9718 29.5282Z" fill="black"/>
<path d="M13.9718 29.5282C9.67606 25.2324 9.67606 18.2676 13.9718 13.9718C18.2676 9.67606 25.2324 9.67606 29.5282 13.9718C33.8239 18.2676 33.8239 25.2324 29.5282 29.5282L22.412 36.6444C22.0464 37.01 21.4536 37.01 21.088 36.6444L13.9718 29.5282Z" stroke="black" stroke-width="1.5"/>
</g>
<g filter="url(#filter1_d_3556_55117)">
<path d="M13.9718 29.5282C9.67606 25.2324 9.67606 18.2676 13.9718 13.9718C18.2676 9.67606 25.2324 9.67606 29.5282 13.9718C33.8239 18.2676 33.8239 25.2324 29.5282 29.5282L22.412 36.6444C22.0464 37.01 21.4536 37.01 21.088 36.6444L13.9718 29.5282Z" fill="black"/>
<path d="M13.9718 29.5282C9.67606 25.2324 9.67606 18.2676 13.9718 13.9718C18.2676 9.67606 25.2324 9.67606 29.5282 13.9718C33.8239 18.2676 33.8239 25.2324 29.5282 29.5282L22.412 36.6444C22.0464 37.01 21.4536 37.01 21.088 36.6444L13.9718 29.5282Z" stroke="white" stroke-width="1.5"/>
</g>
<path d="M19.7536 25.25V18.25M23.7536 25.25V18.25" stroke="white" stroke-width="1.5" stroke-linecap="round" stroke-linejoin="round"/>
<defs>
<filter id="filter0_d_3556_55117" x="0" y="0" width="43.5" height="47.6689" filterUnits="userSpaceOnUse" color-interpolation-filters="sRGB">
<feFlood flood-opacity="0" result="BackgroundImageFix"/>
<feColorMatrix in="SourceAlpha" type="matrix" values="0 0 0 0 0 0 0 0 0 0 0 0 0 0 0 0 0 0 127 0" result="hardAlpha"/>
<feMorphology radius="2" operator="dilate" in="SourceAlpha" result="effect1_dropShadow_3556_55117"/>
<feOffset/>
<feGaussianBlur stdDeviation="4"/>
<feComposite in2="hardAlpha" operator="out"/>
<feColorMatrix type="matrix" values="0 0 0 0 0 0 0 0 0 0 0 0 0 0 0 0 0 0 0.16 0"/>
<feBlend mode="normal" in2="BackgroundImageFix" result="effect1_dropShadow_3556_55117"/>
<feBlend mode="normal" in="SourceGraphic" in2="effect1_dropShadow_3556_55117" result="shape"/>
</filter>
<filter id="filter1_d_3556_55117" x="0" y="0" width="43.5" height="47.6689" filterUnits="userSpaceOnUse" color-interpolation-filters="sRGB">
<feFlood flood-opacity="0" result="BackgroundImageFix"/>
<feColorMatrix in="SourceAlpha" type="matrix" values="0 0 0 0 0 0 0 0 0 0 0 0 0 0 0 0 0 0 127 0" result="hardAlpha"/>
<feMorphology radius="2" operator="dilate" in="SourceAlpha" result="effect1_dropShadow_3556_55117"/>
<feOffset/>
<feGaussianBlur stdDeviation="4"/>
<feComposite in2="hardAlpha" operator="out"/>
<feColorMatrix type="matrix" values="0 0 0 0 0 0 0 0 0 0 0 0 0 0 0 0 0 0 0.16 0"/>
<feBlend mode="normal" in2="BackgroundImageFix" result="effect1_dropShadow_3556_55117"/>
<feBlend mode="normal" in="SourceGraphic" in2="effect1_dropShadow_3556_55117" result="shape"/>
</filter>
</defs>
</svg>
