<svg width="44" height="48" viewBox="0 0 44 48" fill="none" xmlns="http://www.w3.org/2000/svg">
<g filter="url(#filter0_d_3565_36533)">
<path d="M13.9718 29.5282C9.67607 25.2324 9.67607 18.2676 13.9718 13.9718C18.2676 9.67606 25.2324 9.67606 29.5282 13.9718C33.824 18.2676 33.824 25.2324 29.5282 29.5282L22.412 36.6444C22.0464 37.01 21.4536 37.01 21.088 36.6444L13.9718 29.5282Z" fill="#FF6900"/>
<path d="M13.9718 29.5282C9.67607 25.2324 9.67607 18.2676 13.9718 13.9718C18.2676 9.67606 25.2324 9.67606 29.5282 13.9718C33.824 18.2676 33.824 25.2324 29.5282 29.5282L22.412 36.6444C22.0464 37.01 21.4536 37.01 21.088 36.6444L13.9718 29.5282Z" fill="black" fill-opacity="0.4"/>
<path d="M13.9718 29.5282C9.67607 25.2324 9.67607 18.2676 13.9718 13.9718C18.2676 9.67606 25.2324 9.67606 29.5282 13.9718C33.824 18.2676 33.824 25.2324 29.5282 29.5282L22.412 36.6444C22.0464 37.01 21.4536 37.01 21.088 36.6444L13.9718 29.5282Z" stroke="white" stroke-width="1.5"/>
</g>
<path d="M21.7542 17.6299C22.4184 17.6299 23.3039 17.7145 24.0247 18.0215C24.5521 18.2458 25.0025 18.5918 25.2445 19.0986H25.2455C25.2529 19.1145 25.2589 19.1316 25.266 19.1484C25.7097 19.319 26.1543 19.5392 26.5257 19.8135C26.9102 20.0974 27.2248 20.4444 27.3705 20.8604C27.4228 21.0103 27.4552 21.1707 27.472 21.3379C27.884 21.7235 28.2854 22.2171 28.6087 22.8311C28.9296 23.4397 29.1337 24.2969 29.058 24.8975C29.0159 25.233 28.881 25.5116 28.6615 25.6768C28.3721 25.8945 27.9869 25.9172 27.5599 25.7998C27.3243 25.7349 27.061 25.6235 26.7845 25.4932L25.929 25.0713C25.8422 25.0286 25.7526 24.9944 25.6634 24.9658C25.418 25.1237 25.16 25.2362 24.8958 25.2832C24.3971 25.3725 23.986 25.3392 23.6497 25.2432C23.0698 25.6524 22.3387 25.7246 21.7533 25.7246C21.1678 25.7246 20.4359 25.6525 19.8558 25.2432C19.5199 25.3387 19.1094 25.3723 18.6117 25.2832C18.3484 25.2356 18.0898 25.1239 17.8441 24.9658C17.8077 24.9775 17.7709 24.989 17.7347 25.0029L17.5794 25.0713C17.0011 25.3565 16.4199 25.6706 15.9486 25.7998C15.5214 25.9174 15.1355 25.8945 14.846 25.6768V25.6758C14.627 25.5106 14.4916 25.2326 14.4496 24.8975C14.3738 24.2974 14.5787 23.44 14.8988 22.8311H14.8997C15.2229 22.2174 15.623 21.7235 16.0355 21.3379C16.0523 21.1706 16.0856 21.0104 16.138 20.8604C16.2837 20.4445 16.5975 20.0973 16.9818 19.8135C17.353 19.5393 17.798 19.319 18.2415 19.1484C18.2487 19.1316 18.2555 19.1146 18.263 19.0986L18.3636 18.916C18.6191 18.5073 19.0214 18.2178 19.4828 18.0215H19.4837C20.2046 17.7152 21.0901 17.6299 21.7542 17.6299ZM16.1458 22.458C15.9719 22.6791 15.8084 22.9281 15.6624 23.2051C15.4442 23.6194 15.2908 24.1764 15.2884 24.6133C15.2881 24.677 15.2909 24.7361 15.2972 24.79L15.3275 24.9365C15.3464 24.9973 15.3617 25.0182 15.3724 25.0264C15.3972 25.0449 15.4317 25.0558 15.4896 25.0527C15.5501 25.0494 15.6232 25.0319 15.7142 25.0068C16.1162 24.8962 16.6099 24.6238 17.1537 24.3545C16.694 23.827 16.3262 23.1365 16.1458 22.458ZM27.3626 22.458C27.1823 23.136 26.8158 23.8266 26.3558 24.3545C26.8998 24.6239 27.3941 24.8962 27.7962 25.0068H27.7953C27.8865 25.0319 27.9594 25.0494 28.0199 25.0527C28.0777 25.0559 28.1123 25.046 28.1371 25.0273V25.0264C28.1476 25.0183 28.1628 24.9973 28.182 24.9365V24.9355C28.2092 24.85 28.2216 24.7414 28.221 24.6133C28.2187 24.177 28.0653 23.6201 27.847 23.2051C27.7009 22.9279 27.5368 22.6793 27.3626 22.458ZM18.0872 20.1133C17.9081 20.1999 17.7374 20.2967 17.5824 20.4023C17.277 20.6106 17.0458 20.847 16.9486 21.124C16.9056 21.2473 16.8833 21.3866 16.8792 21.5371C16.8667 21.982 17.0054 22.5029 17.2455 22.9873C17.4853 23.4713 17.8208 23.9081 18.1898 24.1904C18.3824 24.3377 18.5769 24.4375 18.7679 24.4717C18.9321 24.5013 19.0811 24.5108 19.2152 24.5078C18.9904 24.1053 18.7623 23.5269 18.5706 22.8984C18.3492 22.1721 18.1734 21.3674 18.1097 20.6709C18.0919 20.4765 18.086 20.2894 18.0872 20.1133ZM25.4212 20.1152C25.4225 20.291 25.4184 20.478 25.4007 20.6719C25.337 21.3686 25.1612 22.1731 24.9398 22.8994C24.7482 23.5278 24.519 24.1055 24.2943 24.5078C24.4284 24.5107 24.5771 24.501 24.7415 24.4717C24.9332 24.4375 25.1287 24.3387 25.3206 24.1914C25.6898 23.909 26.0251 23.4714 26.265 22.9873C26.5049 22.5029 26.6437 21.9828 26.6312 21.5381C26.6271 21.3867 26.6049 21.2468 26.5619 21.124C26.4646 20.8471 26.2324 20.6116 25.9271 20.4033C25.772 20.2976 25.6006 20.2019 25.4212 20.1152Z" fill="white" stroke="white" stroke-width="0.24"/>
<path d="M29.2302 9.55078C29.3949 9.04406 30.1125 9.04406 30.2771 9.55078L31.0466 11.9199C31.0533 11.9405 31.0728 11.9551 31.0945 11.9551H33.5857C34.1185 11.9551 34.34 12.637 33.9089 12.9502L31.8933 14.4141C31.8759 14.4267 31.8684 14.4493 31.8748 14.4697L32.6453 16.8398C32.8097 17.3464 32.2296 17.768 31.7986 17.4551L29.783 15.9902C29.7655 15.9775 29.7419 15.9775 29.7244 15.9902L27.7087 17.4551C27.2778 17.768 26.6976 17.3464 26.8621 16.8398L27.6326 14.4697C27.639 14.4493 27.6314 14.4267 27.614 14.4141L25.5984 12.9502C25.1674 12.637 25.3889 11.9551 25.9216 11.9551H28.4128C28.4345 11.9551 28.454 11.9405 28.4607 11.9199L29.2302 9.55078Z" fill="#F1B100" stroke="white" stroke-width="0.5"/>
<defs>
<filter id="filter0_d_3565_36533" x="0" y="0" width="43.5" height="47.6689" filterUnits="userSpaceOnUse" color-interpolation-filters="sRGB">
<feFlood flood-opacity="0" result="BackgroundImageFix"/>
<feColorMatrix in="SourceAlpha" type="matrix" values="0 0 0 0 0 0 0 0 0 0 0 0 0 0 0 0 0 0 127 0" result="hardAlpha"/>
<feMorphology radius="2" operator="dilate" in="SourceAlpha" result="effect1_dropShadow_3565_36533"/>
<feOffset/>
<feGaussianBlur stdDeviation="4"/>
<feComposite in2="hardAlpha" operator="out"/>
<feColorMatrix type="matrix" values="0 0 0 0 0 0 0 0 0 0 0 0 0 0 0 0 0 0 0.16 0"/>
<feBlend mode="normal" in2="BackgroundImageFix" result="effect1_dropShadow_3565_36533"/>
<feBlend mode="normal" in="SourceGraphic" in2="effect1_dropShadow_3565_36533" result="shape"/>
</filter>
</defs>
</svg>
